<svg width="33" height="33" viewBox="0 0 33 33" fill="none" xmlns="http://www.w3.org/2000/svg">
<path d="M28.5 11.1667V21.8333C28.5 23.6014 27.7976 25.2971 26.5474 26.5474C25.2971 27.7976 23.6014 28.5 21.8333 28.5H11.1667C9.39856 28.5 7.70286 27.7976 6.45262 26.5474C5.20238 25.2971 4.5 23.6014 4.5 21.8333V11.1667C4.5 9.39856 5.20238 7.70286 6.45262 6.45262C7.70286 5.20238 9.39856 4.5 11.1667 4.5H21.8333C23.6014 4.5 25.2971 5.20238 26.5474 6.45262C27.7976 7.70286 28.5 9.39856 28.5 11.1667Z" stroke="#213721" stroke-width="1.5" stroke-linecap="round" stroke-linejoin="round"/>
<path d="M15.1667 28.5V16.5C15.1667 13.5827 15.8333 11.1667 20.5 11.1667M12.5 17.8333H20.5" stroke="#213721" stroke-width="1.5" stroke-linecap="round" stroke-linejoin="round"/>
</svg>
