<svg width="33" height="33" viewBox="0 0 33 33" fill="none" xmlns="http://www.w3.org/2000/svg">
<path d="M16.5 10.75C15.3628 10.75 14.2511 11.0872 13.3055 11.719C12.3599 12.3509 11.6229 13.2489 11.1877 14.2996C10.7525 15.3502 10.6386 16.5064 10.8605 17.6218C11.0824 18.7372 11.63 19.7617 12.4341 20.5659C13.2383 21.37 14.2628 21.9177 15.3782 22.1395C16.4936 22.3614 17.6498 22.2475 18.7004 21.8123C19.7511 21.3771 20.6491 20.6401 21.281 19.6945C21.9128 18.7489 22.25 17.6372 22.25 16.5C22.25 14.975 21.6442 13.5125 20.5659 12.4341C19.4875 11.3558 18.025 10.75 16.5 10.75ZM16.5 20.75C15.6594 20.75 14.8377 20.5007 14.1388 20.0337C13.4399 19.5668 12.8952 18.903 12.5735 18.1264C12.2518 17.3498 12.1677 16.4953 12.3317 15.6709C12.4956 14.8464 12.9004 14.0892 13.4948 13.4948C14.0892 12.9004 14.8464 12.4956 15.6709 12.3317C16.4953 12.1677 17.3498 12.2518 18.1264 12.5735C18.903 12.8952 19.5668 13.4399 20.0337 14.1388C20.5007 14.8377 20.75 15.6594 20.75 16.5C20.7467 17.6262 20.2979 18.7052 19.5016 19.5016C18.7052 20.2979 17.6262 20.7467 16.5 20.75ZM22 4.25H11C9.20979 4.25 7.4929 4.96116 6.22703 6.22703C4.96116 7.4929 4.25 9.20979 4.25 11V22C4.25 23.7902 4.96116 25.5071 6.22703 26.773C7.4929 28.0388 9.20979 28.75 11 28.75H22C23.7902 28.75 25.5071 28.0388 26.773 26.773C28.0388 25.5071 28.75 23.7902 28.75 22V11C28.75 9.20979 28.0388 7.4929 26.773 6.22703C25.5071 4.96116 23.7902 4.25 22 4.25ZM27.25 22C27.25 23.3924 26.6969 24.7277 25.7123 25.7123C24.7277 26.6969 23.3924 27.25 22 27.25H11C9.60761 27.25 8.27225 26.6969 7.28769 25.7123C6.30312 24.7277 5.75 23.3924 5.75 22V11C5.75 9.60761 6.30312 8.27225 7.28769 7.28769C8.27225 6.30312 9.60761 5.75 11 5.75H22C23.3924 5.75 24.7277 6.30312 25.7123 7.28769C26.6969 8.27225 27.25 9.60761 27.25 11V22ZM24.25 10C24.25 10.2472 24.1767 10.4889 24.0393 10.6945C23.902 10.9 23.7068 11.0602 23.4784 11.1548C23.2499 11.2495 22.9986 11.2742 22.7561 11.226C22.5137 11.1778 22.2909 11.0587 22.1161 10.8839C21.9413 10.7091 21.8223 10.4863 21.774 10.2439C21.7258 10.0014 21.7505 9.75005 21.8451 9.52165C21.9398 9.29324 22.1 9.09801 22.3055 8.96066C22.5111 8.82331 22.7528 8.75 23 8.75C23.3315 8.75 23.6495 8.8817 23.8839 9.11612C24.1183 9.35054 24.25 9.66848 24.25 10Z" fill="#213721"/>
</svg>
