<svg width="31" height="19" viewBox="0 0 31 19" fill="none" xmlns="http://www.w3.org/2000/svg">
<path fill-rule="evenodd" clip-rule="evenodd" d="M30.947 9.73744L30.9995 8.99804L31 8.99502L30.9997 8.99498L30.9948 8.99425L30.9702 8.99046C30.9475 8.98688 30.9122 8.98116 30.8653 8.97304C30.7715 8.9568 30.6314 8.93104 30.4529 8.89383C30.0954 8.81937 29.5854 8.69944 28.9842 8.51907C27.7764 8.15675 26.227 7.55829 24.8097 6.61341C23.4599 5.71355 22.406 4.21468 21.6771 2.8783C21.3176 2.21928 21.0476 1.61932 20.8679 1.18505C20.7782 0.968278 20.7114 0.793737 20.6675 0.674929C20.6456 0.615549 20.6294 0.570168 20.619 0.540477L20.6078 0.507946L20.6054 0.500921L20.6051 0.5C20.6051 0.500128 20.6052 0.500273 19.8937 0.737444C19.1821 0.974615 19.1822 0.974794 19.1823 0.974991L19.1824 0.975471L19.1829 0.976739L19.1841 0.980505L19.1883 0.992882L19.2034 1.03646C19.2165 1.07367 19.2354 1.12692 19.2604 1.19449C19.3103 1.32959 19.3841 1.52223 19.4819 1.75858C19.6772 2.23057 19.9697 2.88061 20.3602 3.59658C21.1313 5.01021 22.3274 6.76134 23.9776 7.86148C24.6422 8.30451 25.3275 8.67638 25.9946 8.98744H0.893654V10.4874H25.9946C25.3275 10.7985 24.6422 11.1704 23.9776 11.6134C22.3274 12.7135 21.1313 14.4647 20.3602 15.8783C19.9697 16.5943 19.6772 17.2443 19.4819 17.7163C19.3841 17.9527 19.3103 18.1453 19.2604 18.2804C19.2354 18.348 19.2165 18.4012 19.2034 18.4384L19.1883 18.482L19.1841 18.4944L19.1829 18.4981L19.1824 18.4994L19.1823 18.4999C19.1822 18.5001 19.1821 18.5003 19.8937 18.7374C20.6052 18.9746 20.6051 18.9748 20.6051 18.9749L20.6054 18.974L20.6078 18.9669L20.619 18.9344C20.6294 18.9047 20.6456 18.8593 20.6675 18.8C20.7114 18.6812 20.7782 18.5066 20.8679 18.2898C21.0476 17.8556 21.3176 17.2556 21.6771 16.5966C22.406 15.2602 23.4599 13.7613 24.8097 12.8615C26.227 11.9166 27.7764 11.3181 28.9842 10.9558C29.5854 10.7754 30.0954 10.6555 30.4529 10.5811C30.6314 10.5439 30.7715 10.5181 30.8653 10.5018C30.9122 10.4937 30.9475 10.488 30.9702 10.4844L30.9948 10.4806L30.9997 10.4799L31 10.4799L30.9995 10.4768L30.947 9.73744Z" fill="#213721"/>
</svg>
