<svg width="31" height="19" viewBox="0 0 31 19" fill="none" xmlns="http://www.w3.org/2000/svg">
<path fill-rule="evenodd" clip-rule="evenodd" d="M30.0534 9.73744L30.1059 8.99804L30.1064 8.99502L30.1062 8.99498L30.1012 8.99425L30.0767 8.99046C30.0539 8.98688 30.0186 8.98116 29.9718 8.97304C29.8779 8.9568 29.7379 8.93104 29.5593 8.89383C29.2019 8.81937 28.6918 8.69944 28.0906 8.51907C26.8829 8.15675 25.3334 7.55829 23.9161 6.61341C22.5663 5.71355 21.5125 4.21468 20.7835 2.8783C20.4241 2.21928 20.1541 1.61932 19.9744 1.18505C19.8847 0.968278 19.8179 0.793737 19.774 0.674929C19.7521 0.615549 19.7359 0.570168 19.7255 0.540477L19.7142 0.507946L19.7118 0.500921L19.7115 0.5C19.7116 0.500128 19.7116 0.500273 19.0001 0.737444C18.2886 0.974615 18.2886 0.974794 18.2887 0.974991L18.2889 0.975471L18.2893 0.976739L18.2906 0.980505L18.2948 0.992882L18.3099 1.03646C18.3229 1.07367 18.3419 1.12692 18.3668 1.19449C18.4167 1.32959 18.4905 1.52223 18.5883 1.75858C18.7836 2.23057 19.0761 2.88061 19.4667 3.59658C20.2377 5.01021 21.4339 6.76134 23.0841 7.86148C23.7486 8.30451 24.4339 8.67638 25.1011 8.98744H9.91821e-05V10.4874H25.1011C24.4339 10.7985 23.7486 11.1704 23.0841 11.6134C21.4339 12.7135 20.2377 14.4647 19.4667 15.8783C19.0761 16.5943 18.7836 17.2443 18.5883 17.7163C18.4905 17.9527 18.4167 18.1453 18.3668 18.2804C18.3419 18.348 18.3229 18.4012 18.3099 18.4384L18.2948 18.482L18.2906 18.4944L18.2893 18.4981L18.2889 18.4994L18.2887 18.4999C18.2886 18.5001 18.2886 18.5003 19.0001 18.7374C19.7116 18.9746 19.7116 18.9748 19.7115 18.9749L19.7118 18.974L19.7142 18.9669L19.7255 18.9344C19.7359 18.9047 19.7521 18.8593 19.774 18.8C19.8179 18.6812 19.8847 18.5066 19.9744 18.2898C20.1541 17.8556 20.4241 17.2556 20.7835 16.5966C21.5125 15.2602 22.5663 13.7613 23.9161 12.8615C25.3334 11.9166 26.8829 11.3181 28.0906 10.9558C28.6918 10.7754 29.2019 10.6555 29.5593 10.5811C29.7379 10.5439 29.8779 10.5181 29.9718 10.5018C30.0186 10.4937 30.0539 10.488 30.0767 10.4844L30.1012 10.4806L30.1062 10.4799L30.1064 10.4799L30.1059 10.4768L30.0534 9.73744Z" fill="#E4ECE0"/>
</svg>
