<svg width="33" height="33" viewBox="0 0 33 33" fill="none" xmlns="http://www.w3.org/2000/svg">
<path d="M31.1875 9.21249C31.1311 9.07639 31.0357 8.95994 30.9135 8.87768C30.7912 8.79543 30.6474 8.75102 30.5 8.74999H26.55C26.0618 7.85327 25.3436 7.10273 24.4693 6.57548C23.5949 6.04824 22.596 5.76331 21.575 5.74999C20.0411 5.74333 18.5669 6.3446 17.4753 7.42223C16.3836 8.49986 15.7632 9.96608 15.75 11.5V12.5875C10.45 11.325 6.07503 7.01249 6.02503 6.97499C5.92867 6.87986 5.80834 6.8126 5.67683 6.78033C5.54532 6.74807 5.40752 6.75202 5.27807 6.79175C5.14862 6.83148 5.03234 6.90552 4.94157 7.00601C4.8508 7.10649 4.78894 7.22968 4.76253 7.36249C3.67503 13.3125 5.46253 17.2875 7.15003 19.575C8.04503 20.7998 9.14446 21.8612 10.4 22.7125C8.46253 25.0625 5.27503 26.2875 5.23753 26.3C5.13103 26.3392 5.03502 26.4025 4.95697 26.4849C4.87892 26.5672 4.82094 26.6665 4.78753 26.775C4.75206 26.8808 4.7415 26.9934 4.75668 27.104C4.77186 27.2146 4.81236 27.3201 4.87503 27.4125C5.00003 27.6 6.22503 29.25 10.5 29.25C19.2125 29.25 26.5 22.5125 27.2 13.8625L31.025 10.025C31.1335 9.92341 31.2074 9.79048 31.2365 9.64479C31.2657 9.49911 31.2485 9.34796 31.1875 9.21249ZM25.9375 13C25.8075 13.1297 25.7316 13.3039 25.725 13.4875C25.2125 21.4875 18.525 27.75 10.5 27.75C8.76253 27.75 7.65003 27.45 6.98753 27.15C8.40003 26.4375 10.7125 25.0375 12.125 22.9125C12.1813 22.8244 12.2192 22.7258 12.2364 22.6227C12.2535 22.5196 12.2497 22.4141 12.225 22.3125C12.1984 22.2085 12.1501 22.1114 12.0833 22.0274C12.0165 21.9434 11.9328 21.8744 11.8375 21.825C11.8125 21.825 9.93753 20.85 8.31253 18.625C6.37503 15.975 5.61253 12.7375 6.03753 8.99999C7.86253 10.55 11.8 13.475 16.375 14.2375C16.4827 14.2579 16.5936 14.2541 16.6996 14.2264C16.8056 14.1986 16.9041 14.1475 16.9879 14.0769C17.0718 14.0062 17.1388 13.9178 17.1841 13.818C17.2294 13.7182 17.252 13.6096 17.25 13.5V11.5C17.2599 10.3672 17.7177 9.2844 18.5234 8.48808C19.3291 7.69175 20.4172 7.24665 21.55 7.24999C22.3686 7.26181 23.1665 7.50839 23.849 7.96043C24.5315 8.41246 25.0698 9.05095 25.4 9.79999C25.4571 9.93474 25.5529 10.0495 25.6753 10.1296C25.7977 10.2097 25.9412 10.2516 26.0875 10.25H28.6875L25.9375 13Z" fill="#213721"/>
</svg>
