<svg width="269" height="55" viewBox="0 0 269 55" fill="none" xmlns="http://www.w3.org/2000/svg">
<path d="M26.5192 54.314L31.2823 7.2174C31.5503 4.80249 32.0201 4.39945 32.8253 4.39945H33.2946V1.71648H25.5796V4.39945H26.0494C27.1226 4.39945 27.6592 5.1378 27.5252 7.2174L24.7745 35.3949L21.6217 7.2174C21.3527 5.00377 21.8893 4.39945 23.0979 4.39945H23.2315V1.71648H12.4972V4.39945H13.0348C14.0412 4.39945 14.0412 4.80249 14.2424 7.2174L15.0476 14.3968L12.5645 37.2065L9.74747 7.2174C9.41168 4.80249 9.8815 4.39945 10.9547 4.39945H11.0882V1.71648H0.219971V4.39945H0.757036C1.89748 4.39945 1.96426 4.80249 2.23279 7.2174L7.06308 54.314H14.0407L16.7914 30.0944L19.6089 54.314H26.5192ZM72.7449 23.4535C72.7449 20.1662 72.7449 19.0253 74.8245 19.0253C76.2335 19.0253 76.2335 19.5619 76.2335 22.3126V50.4229C76.2335 51.4297 75.8977 51.6305 75.3611 51.6305H75.0263V54.3135H85.8273V51.6305H85.3575C84.6201 51.6305 84.4188 51.3615 84.4188 50.2883V20.8373C84.4188 16.0061 83.4124 14.1273 78.6489 14.1273C75.8977 14.1273 73.8858 14.9997 72.6109 18.0179C72.0733 15.335 70.6648 14.1273 66.9755 14.1273C63.9562 14.1273 62.346 15.0669 61.1388 18.0179V14.1273L51.8803 14.8656V17.5486H52.2823C52.8862 17.5486 53.3555 18.0179 53.3555 19.4951V50.0866C53.3555 51.2943 53.0875 51.6305 52.2823 51.6305H51.8803V54.3135H62.2119V51.6305H61.8098C61.2728 51.6305 61.1388 51.4293 61.1388 50.6237V23.4535C61.1388 20.1662 61.071 19.0253 63.1506 19.0253C64.5596 19.0253 64.5596 19.5619 64.5596 22.3126V50.4229C64.5596 51.4297 64.2243 51.6305 63.7545 51.6305H63.2851V54.3135H73.8858V51.6305H73.7513C73.0139 51.6305 72.7449 51.3615 72.7449 50.2883V23.4535ZM148.222 54.314H161.171V51.631H160.298C159.158 51.631 158.822 51.1607 158.822 48.8131V28.5518H165.666V48.8126C165.666 51.1603 165.33 51.6305 164.257 51.6305H163.25V54.3135H176.131V51.6305H175.059C173.917 51.6305 173.716 51.1603 173.716 48.8126V7.2174C173.716 4.80249 173.917 4.39945 175.059 4.39945H176.131V1.71648H163.25V4.39945H164.257C165.33 4.39945 165.666 4.80249 165.666 7.2174V25.3976H158.822V7.2174C158.822 4.80249 159.158 4.39945 160.298 4.39945H161.171V1.71648H148.222V4.39945H149.363C150.436 4.39945 150.772 4.80249 150.772 7.2174V50.1538C150.772 51.2948 150.436 51.631 149.363 51.631H148.222V54.314ZM246.041 54.314H256.305V51.631H255.97C255.299 51.631 255.232 51.4297 255.232 50.6241V23.4535C255.232 20.1662 255.3 19.0253 257.379 19.0253C258.921 19.0253 258.921 19.5619 258.921 22.3126V50.4229C258.921 51.4297 258.654 51.6305 258.185 51.6305H257.714V54.3135H268.583V51.6305H268.114C267.375 51.6305 267.241 51.3615 267.241 50.2883V20.8373C267.241 16.0061 266.034 14.1273 261.337 14.1273C258.251 14.1273 256.507 15.0669 255.232 18.0179V0.910889L245.37 1.71648V4.39945H246.377C247.047 4.39945 247.45 4.80249 247.45 6.27871V50.0866C247.45 51.2943 247.248 51.6305 246.377 51.6305H246.041V54.314ZM41.0106 54.7833C49.5989 54.7833 50.8061 47.6049 50.8061 34.4553C50.8061 21.2394 49.5312 14.1273 41.0106 14.1273C32.4909 14.1273 31.2164 21.2394 31.2164 34.4553C31.216 47.6049 32.4236 54.7833 41.0106 54.7833ZM106.022 54.314H116.353V51.631H115.883C115.281 51.631 115.281 51.4297 115.281 50.6241V23.4535C115.281 20.1662 115.281 19.0253 117.426 19.0253C118.902 19.0253 118.97 19.5619 118.97 22.3126V50.4229C118.97 51.4297 118.568 51.6305 118.165 51.6305H117.694V54.3135H128.563V51.6305H128.094C127.356 51.6305 127.155 51.3615 127.155 50.2883V20.8373C127.155 16.0061 126.014 14.1273 121.25 14.1273C118.233 14.1273 116.42 15.0669 115.281 18.0179V14.1273L105.351 14.8656V17.5486H106.424C107.029 17.5486 107.497 18.0179 107.497 19.4951V50.0866C107.497 51.2943 107.23 51.6305 106.424 51.6305H106.022V54.314H106.022ZM201.223 54.7833C204.779 54.7833 206.121 53.04 206.858 50.9594C207.529 54.0454 208.267 54.7833 212.292 54.7833C216.989 54.7833 217.593 51.9663 217.526 46.4645H215.312C215.312 50.4233 215.244 50.8254 214.506 50.8254C213.835 50.8254 213.835 50.4901 213.835 48.2755V22.1785C213.835 16.8784 212.092 14.1277 205.92 14.1277C201.022 14.1277 196.191 15.604 196.459 20.9036C196.594 23.3194 197.533 25.8684 200.082 25.7339C202.43 25.5999 203.504 24.3259 203.504 22.3794C203.504 21.0381 202.497 18.8235 200.888 17.6158C201.491 17.3478 202.43 17.0783 203.974 17.0783C205.719 17.0783 206.053 18.4205 206.053 20.9699V28.2824C197.13 31.3016 195.252 32.5093 195.252 43.7133C195.252 51.765 197.199 54.7833 201.223 54.7833ZM185.86 54.7833C192.501 54.7833 194.044 52.771 193.709 41.7687H190.958C190.958 50.4901 190.689 51.1607 187.604 51.1607C183.914 51.1607 183.914 49.5505 183.914 34.5907V33.3821H194.647C194.647 18.2879 192.971 14.1282 185.859 14.1282C179.419 14.1282 176.064 18.0871 176.064 34.7243C176.065 50.5569 178.614 54.851 185.86 54.7833ZM96.6956 54.7833C103.204 54.7833 105.015 52.771 104.746 41.7687H101.997C101.997 50.4901 101.595 51.1607 98.4408 51.1607C94.4824 51.1607 94.6837 49.5505 94.6837 34.5907V33.3821H105.083C105.083 18.2879 103.674 14.1282 96.696 14.1282C90.1896 14.1282 86.8346 18.0871 86.8346 34.7243C86.8342 50.5569 89.3831 54.851 96.6956 54.7833ZM219.003 54.314H229.738V51.631H228.933C228.261 51.631 227.993 51.2948 227.993 50.222V0.910889L217.997 1.71648V4.39945H219.137C219.808 4.39945 220.076 4.66752 220.076 5.74165V50.3561C220.076 51.362 220.009 51.631 219.54 51.631H219.003V54.314H219.003ZM140.64 54.7833C145.539 54.7833 148.089 51.5628 148.089 46.7335C148.089 35.3954 137.823 28.8204 137.823 20.7023C137.823 18.2197 138.696 17.4818 140.44 17.4818C142.989 17.4818 143.392 18.5555 143.861 22.3794L144.263 26.136H147.215V14.4626H144.868C144.733 15.9398 144.399 16.4759 144.263 16.2741C143.526 15.4022 141.781 14.1277 138.897 14.1277C134.603 14.1277 130.846 16.0733 130.846 22.4466C130.846 32.3757 141.044 39.9572 141.044 47.5381C141.044 50.8254 140.306 51.362 137.958 51.362C135.61 51.362 135.007 50.2893 134.537 45.3245L134.201 42.0363H131.115V54.314H133.798C134 52.9718 134.471 52.1004 134.872 52.5024C135.744 53.5093 136.682 54.7833 140.64 54.7833ZM231.75 45.9956C231.75 52.3684 232.69 54.7833 238.995 54.7833C243.423 54.7833 244.43 53.04 244.43 48.1424V41.4997H241.746V48.4778C241.746 50.8254 241.545 51.0935 240.674 51.0935C239.801 51.0935 239.6 50.8254 239.6 48.7458V17.4818H244.498V14.4626H239.667V4.39945H236.917C234.971 13.3231 233.294 14.4626 230.677 14.4626H229.94V17.4146H231.75L231.75 45.9956ZM41.0106 51.3615C39.1332 51.3615 39.1332 50.2888 39.1332 34.4553C39.1332 18.5555 39.1332 17.4818 41.0106 17.4818C42.8894 17.4818 42.8894 18.5555 42.8894 34.4553C42.8894 50.3561 42.8894 51.3615 41.0106 51.3615ZM129.504 16.141C136.212 11.1753 137.555 7.41868 135.34 3.99736C134.133 2.11905 131.381 0.911359 129.369 2.58839C126.953 4.60074 127.558 8.09024 132.053 10.1031C131.247 11.0417 129.369 12.8542 127.826 14.3972L129.504 16.141ZM204.444 50.0866C202.834 50.0866 202.834 48.4105 202.834 43.1104C202.834 33.4494 202.834 32.1744 206.053 30.4301V47.0011C206.053 49.4832 205.719 50.0866 204.444 50.0866ZM94.6832 30.5646C94.8172 18.0184 95.019 17.415 96.7633 17.415C98.4403 17.415 98.3067 18.0866 98.3067 30.5646H94.6832ZM183.915 30.5646C184.116 18.0184 184.25 17.415 185.995 17.415C187.739 17.415 187.47 18.0866 187.47 30.5646H183.915Z" fill="#C8D8C0"/>
</svg>
