<svg width="180" height="101" viewBox="0 0 180 101" fill="none" xmlns="http://www.w3.org/2000/svg">
<path d="M13.9333 42.8915H7.4837V7.08086H0.364258V1.13232H21.1093V7.08086H13.9271V42.8915H13.9333Z" fill="#C8D8C0"/>
<path d="M30.7397 24.9646V42.8919H24.2903V1.12646H30.7397V19.0099H39.9444V1.12646H46.394V42.8857H39.9444V24.9584H30.7397V24.9646Z" fill="#C8D8C0"/>
<path d="M73.9077 29.6169C73.9077 34.3132 73.219 37.131 71.5283 39.5103C69.6498 42.1403 66.5188 43.5179 62.5115 43.5179C58.5039 43.5179 55.3731 42.1403 53.4946 39.5103C51.804 37.131 51.115 34.3132 51.115 29.6169V14.401C51.115 9.7047 51.804 6.88694 53.4946 4.50757C55.3731 1.87766 58.5039 0.5 62.5115 0.5C66.5188 0.5 69.6498 1.87766 71.5283 4.50757C73.219 6.88694 73.9077 9.7047 73.9077 14.401V29.6169ZM57.5646 29.4918C57.5646 32.8104 57.7525 33.8748 58.3787 35.1898C59.1301 36.5674 60.6954 37.444 62.5115 37.444C64.3273 37.444 65.8928 36.5674 66.6442 35.1898C67.3329 33.8748 67.458 32.8731 67.458 29.4918V14.5261C67.458 11.1448 67.3329 10.1431 66.6442 8.82815C65.8928 7.45049 64.3273 6.57394 62.5115 6.57394C60.6954 6.57394 59.1301 7.45049 58.3787 8.82815C57.7525 10.0804 57.5646 11.2075 57.5646 14.5261V29.4918Z" fill="#C8D8C0"/>
<path d="M100.22 1.12646V29.4293C100.22 34.6891 99.5934 37.3817 97.8403 39.7611C96.0243 42.2032 92.9562 43.5181 89.1992 43.5181C85.4422 43.5181 82.3111 42.2032 80.4953 39.7611C78.742 37.3817 78.116 34.6891 78.116 29.4293V1.12646H84.5653V30.4875C84.5653 35.4343 85.8803 37.438 89.1992 37.438C92.5178 37.438 93.7701 35.4343 93.7701 30.4875V1.12646H100.22Z" fill="#C8D8C0"/>
<path d="M127.739 20.1179V42.8917H124.421L123.231 39.3225C121.102 42.3281 118.785 43.5179 115.404 43.5179C111.584 43.5179 108.391 41.7021 106.763 38.6338C105.385 35.9412 104.947 33.2488 104.947 27.4879V15.9665C104.947 9.329 105.448 6.94964 107.389 4.38217C109.205 1.87766 112.398 0.5 116.218 0.5C123.419 0.5 127.552 5.25898 127.552 13.4617V15.1962H121.102V13.8374C121.102 9.07845 119.412 6.57394 116.155 6.57394C114.465 6.57394 113.025 7.32534 112.336 8.70275C111.584 10.0804 111.396 11.2702 111.396 14.714V27.4879C111.396 30.9319 111.584 32.7477 112.085 34.3132C112.774 36.2544 114.402 37.444 116.468 37.444C119.85 37.444 121.29 35.0019 121.29 29.1785V25.4404H115.968V20.1179H127.739Z" fill="#C8D8C0"/>
<path d="M139.887 24.9646V42.8919H133.438V1.12646H139.887V19.0099H149.092V1.12646H155.541V42.8857H149.092V24.9584H139.887V24.9646Z" fill="#C8D8C0"/>
<path d="M172.381 42.8915H165.929V7.08086H158.81V1.13232H179.556V7.08086H172.373V42.8915H172.381Z" fill="#C8D8C0"/>
<path d="M22.1489 73.2112V70.8191C22.1489 65.9977 20.4582 63.5556 17.2647 63.5556C15.5114 63.5556 14.1337 64.307 13.445 65.622C12.6309 66.9996 12.443 68.2519 12.443 71.6332V85.5342C12.443 88.7277 12.6309 90.3559 13.132 91.7333C13.758 93.3615 15.3862 94.4259 17.2647 94.4259C20.646 94.4259 22.274 91.7333 22.274 86.2856V83.6119H28.7861V86.6613C28.7861 95.7409 24.8412 100.5 17.3272 100.5C13.132 100.5 9.81313 98.8716 7.99732 95.866C6.43181 93.2988 5.99365 90.8567 5.99365 84.6577V72.9482C5.99365 66.3109 6.49451 63.994 8.43572 61.3641C10.2515 58.8593 13.3823 57.4817 17.2647 57.4817C24.4031 57.4817 28.5982 62.2407 28.5982 70.4437V73.2112H22.1489Z" fill="#C8D8C0"/>
<path d="M68.4101 99.8737H61.9605V64.063H54.8411V58.1143H75.5861V64.063H68.4101V99.8737Z" fill="#C8D8C0"/>
<path d="M110.364 93.9252H119.362V99.8737H103.914V58.1143H110.364V93.9252Z" fill="#C8D8C0"/>
<path d="M144.459 86.5986C144.459 91.2949 143.77 94.1127 142.08 96.4923C140.201 99.1222 137.07 100.5 133.063 100.5C129.055 100.5 125.924 99.1222 124.046 96.4923C122.355 94.1127 121.667 91.2949 121.667 86.5986V71.3829C121.667 66.6866 122.355 63.8686 124.046 61.4893C125.924 58.8594 129.055 57.4817 133.063 57.4817C137.07 57.4817 140.201 58.8594 142.08 61.4893C143.77 63.8686 144.459 66.6866 144.459 71.3829V86.5986ZM128.116 86.4735C128.116 89.7921 128.304 90.8567 128.93 92.1717C129.681 93.5491 131.247 94.4259 133.063 94.4259C134.879 94.4259 136.444 93.5491 137.195 92.1717C137.884 90.8567 138.01 89.8548 138.01 86.4735V71.5081C138.01 68.1268 137.884 67.1248 137.195 65.8098C136.444 64.4322 134.879 63.5556 133.063 63.5556C131.247 63.5556 129.681 64.4322 128.93 65.8098C128.304 67.0621 128.116 68.1892 128.116 71.5081V86.4735Z" fill="#C8D8C0"/>
<path d="M171.02 77.0998V99.8736H167.703L166.511 96.3044C164.383 99.31 162.067 100.5 158.685 100.5C154.866 100.5 151.672 98.6838 150.044 95.6155C148.666 92.9231 148.228 90.2305 148.228 84.4698V72.9482C148.228 66.3109 148.729 63.9313 150.67 61.3641C152.486 58.8593 155.68 57.4817 159.499 57.4817C166.7 57.4817 170.833 62.2407 170.833 70.4437V72.1781H164.383V70.8191C164.383 66.0604 162.693 63.5556 159.437 63.5556C157.746 63.5556 156.306 64.307 155.617 65.6847C154.866 67.0621 154.678 68.2519 154.678 71.6959V84.4698C154.678 87.9136 154.866 89.7296 155.367 91.2949C156.055 93.2361 157.683 94.4259 159.75 94.4259C163.131 94.4259 164.571 91.9839 164.571 86.1605V82.4221H159.249V77.0998H171.02Z" fill="#C8D8C0"/>
<path d="M49.243 99.8737H55.8805L47.4272 58.1143H38.5981L30.5833 99.8737H36.9075L38.1097 93.1924H48.0031L49.243 99.8737ZM39.2368 86.9306L42.9814 66.1294L46.8385 86.9306H39.2368Z" fill="#C8D8C0"/>
<path d="M93.4004 99.8737H100.038L91.5846 58.1143H82.7556L74.7405 99.8737H81.065L82.2672 93.1924H92.1606L93.4004 99.8737ZM83.3943 86.9306L87.1387 66.1294L90.996 86.9306H83.3943Z" fill="#C8D8C0"/>
</svg>
